<?xml version="1.0" standalone="no"?>
<!DOCTYPE svg PUBLIC "-//W3C//DTD SVG 20010904//EN"
 "http://www.w3.org/TR/2001/REC-SVG-20010904/DTD/svg10.dtd">
<svg version="1.0" xmlns="http://www.w3.org/2000/svg"
 width="320.000000pt" height="320.000000pt" viewBox="0 0 320.000000 320.000000"
 preserveAspectRatio="xMidYMid meet">
<metadata>
Created by potrace 1.14, written by Peter Selinger 2001-2017
</metadata>
<g transform="translate(0.000000,320.000000) scale(0.100000,-0.100000)"
fill="#000000" stroke="none">
<path d="M620 2594 c-88 -75 -108 -213 -70 -499 34 -258 28 -296 -60 -389 -49
-52 -50 -54 -50 -114 0 -60 1 -63 45 -103 58 -53 85 -111 85 -180 0 -30 -9
-128 -21 -219 -40 -312 -4 -475 114 -519 16 -6 69 -11 118 -11 l89 0 0 129 0
128 -46 6 c-55 6 -90 36 -105 90 -8 31 -7 71 7 171 9 72 17 181 18 241 1 116
-4 133 -69 241 l-18 31 30 44 c17 25 39 69 49 99 19 58 20 32 -17 387 -12 121
-3 170 41 206 16 14 47 28 70 32 l40 7 0 124 0 124 -109 0 c-104 0 -111 -1
-141 -26z"/>
<path d="M2300 2496 l0 -124 42 -7 c59 -10 104 -57 113 -116 4 -25 -3 -122
-15 -229 -12 -102 -19 -207 -16 -233 5 -43 32 -105 76 -173 12 -20 10 -27 -17
-70 -68 -107 -73 -165 -37 -465 12 -96 13 -137 4 -167 -14 -55 -59 -92 -111
-92 l-39 0 0 -130 0 -130 89 0 c49 0 102 5 118 11 118 44 155 212 114 522 -12
87 -21 183 -21 214 0 70 28 130 87 184 42 38 43 41 43 100 0 60 -1 62 -54 120
-30 32 -60 75 -66 95 -14 42 -9 159 15 326 34 237 9 391 -75 462 -30 25 -37
26 -141 26 l-109 0 0 -124z"/>
<path d="M1450 2365 c-135 -37 -247 -118 -324 -234 -26 -38 -53 -72 -62 -75
-20 -8 -42 -63 -60 -148 -13 -61 -13 -73 0 -101 9 -18 20 -62 26 -98 12 -80
31 -134 70 -207 16 -31 27 -58 24 -61 -3 -3 -34 24 -69 61 -34 37 -75 72 -91
78 -55 21 -114 -28 -114 -96 0 -19 19 -46 71 -99 69 -72 71 -74 55 -97 -24
-35 -20 -50 29 -98 l46 -45 31 18 c31 18 32 18 56 -7 l25 -25 -36 -69 c-59
-111 -87 -272 -51 -286 30 -11 994 -7 1016 5 18 10 20 17 13 72 -8 79 -38 169
-75 229 l-28 46 29 28 c27 26 30 26 47 11 29 -26 46 -21 91 28 44 48 50 65 26
85 -8 7 -15 17 -15 23 0 6 29 40 64 77 36 37 68 78 71 93 10 40 -20 94 -60
107 -46 15 -77 -2 -149 -81 -31 -34 -58 -60 -61 -57 -3 3 10 36 29 74 39 76
66 169 66 224 0 19 7 46 16 59 31 44 -8 235 -52 255 -11 5 -33 31 -49 58 -63
105 -169 192 -290 238 -78 29 -234 37 -315 15z m424 -340 c4 -12 26 -15 106
-15 l101 0 14 -34 c8 -19 18 -60 21 -90 l7 -56 -511 0 -510 0 5 38 c2 20 11
61 19 90 l15 52 338 0 c289 0 340 2 351 15 7 8 18 15 25 15 7 0 15 -7 19 -15z
m2 -264 c69 -42 63 -143 -10 -178 -34 -16 -37 -16 -123 18 -121 47 -204 47
-317 1 -54 -22 -88 -31 -107 -27 -91 20 -102 160 -14 196 11 4 137 8 280 8
239 1 262 -1 291 -18z m-692 -376 c16 -24 16 -27 -3 -53 -11 -15 -42 -49 -70
-76 l-51 -50 -25 24 -25 24 72 77 c40 42 76 77 79 78 4 0 14 -10 23 -24z m966
-131 c0 -6 -9 -19 -20 -29 -21 -19 -22 -18 -98 58 l-76 76 24 26 24 26 73 -73
c40 -40 73 -78 73 -84z m-838 29 c7 -9 5 -15 -7 -20 -13 -4 -25 2 -42 23 -12
16 -23 33 -23 37 0 10 57 -22 72 -40z m592 6 c-21 -20 -36 -28 -48 -23 -14 5
-10 12 25 35 53 35 63 29 23 -12z m-674 -34 l24 -25 -29 -30 -29 -30 -23 22
c-28 26 -28 29 -2 62 25 32 30 32 59 1z m769 -61 l-26 -25 -31 28 -32 27 27
28 27 28 30 -30 31 -30 -26 -26z m-378 -137 c87 -90 170 -178 184 -195 l27
-32 -41 0 c-40 0 -46 5 -162 124 -66 69 -130 126 -141 128 -14 2 -22 11 -23
26 -1 13 -22 43 -46 68 -34 35 -41 47 -30 53 34 21 77 -10 232 -172z"/>
<path d="M1374 1726 c-10 -25 0 -61 18 -64 19 -4 32 29 23 58 -7 23 -33 27
-41 6z"/>
<path d="M1754 1726 c-11 -28 0 -61 21 -61 16 0 20 7 20 35 0 25 -5 36 -18 38
-9 2 -20 -3 -23 -12z"/>
</g>
</svg>
